<svg width="20" height="21" viewBox="0 0 20 21" fill="none" xmlns="http://www.w3.org/2000/svg">
<path d="M18.334 6.54163H13.334C12.9923 6.54163 12.709 6.25829 12.709 5.91663C12.709 5.57496 12.9923 5.29163 13.334 5.29163H18.334C18.6757 5.29163 18.959 5.57496 18.959 5.91663C18.959 6.25829 18.6757 6.54163 18.334 6.54163Z" fill="#949D9E"/>
<path d="M4.99935 6.54163H1.66602C1.32435 6.54163 1.04102 6.25829 1.04102 5.91663C1.04102 5.57496 1.32435 5.29163 1.66602 5.29163H4.99935C5.34102 5.29163 5.62435 5.57496 5.62435 5.91663C5.62435 6.25829 5.34102 6.54163 4.99935 6.54163Z" fill="#949D9E"/>
<path d="M8.33268 9.45833C6.38268 9.45833 4.79102 7.86667 4.79102 5.91667C4.79102 3.96667 6.38268 2.375 8.33268 2.375C10.2827 2.375 11.8743 3.96667 11.8743 5.91667C11.8743 7.86667 10.2827 9.45833 8.33268 9.45833ZM8.33268 3.625C7.06602 3.625 6.04102 4.65 6.04102 5.91667C6.04102 7.18333 7.06602 8.20833 8.33268 8.20833C9.59935 8.20833 10.6243 7.18333 10.6243 5.91667C10.6243 4.65 9.59935 3.625 8.33268 3.625Z" fill="#949D9E"/>
<path d="M18.3333 15.7084H15C14.6583 15.7084 14.375 15.425 14.375 15.0834C14.375 14.7417 14.6583 14.4584 15 14.4584H18.3333C18.675 14.4584 18.9583 14.7417 18.9583 15.0834C18.9583 15.425 18.675 15.7084 18.3333 15.7084Z" fill="#949D9E"/>
<path d="M6.66602 15.7084H1.66602C1.32435 15.7084 1.04102 15.425 1.04102 15.0834C1.04102 14.7417 1.32435 14.4584 1.66602 14.4584H6.66602C7.00768 14.4584 7.29102 14.7417 7.29102 15.0834C7.29102 15.425 7.00768 15.7084 6.66602 15.7084Z" fill="#949D9E"/>
<path d="M11.6667 18.625C9.71667 18.625 8.125 17.0333 8.125 15.0833C8.125 13.1333 9.71667 11.5416 11.6667 11.5416C13.6167 11.5416 15.2083 13.1333 15.2083 15.0833C15.2083 17.0333 13.6167 18.625 11.6667 18.625ZM11.6667 12.7916C10.4 12.7916 9.375 13.8166 9.375 15.0833C9.375 16.35 10.4 17.375 11.6667 17.375C12.9333 17.375 13.9583 16.35 13.9583 15.0833C13.9583 13.8166 12.9333 12.7916 11.6667 12.7916Z" fill="#949D9E"/>
</svg>
